<svg width="83" height="42" viewBox="0 0 83 42" fill="none" xmlns="http://www.w3.org/2000/svg">
<g clip-path="url(#clip0_437_41564)">
<path d="M25.709 13.2887C26.958 15.2767 26.5458 17.9519 25.7824 19.3448C24.6653 21.3724 22.274 23.8505 18.5152 23.6229C15.7612 23.4518 13.4773 22.1386 12.4235 20.1875C11.1989 17.9058 11.9861 14.6713 13.8746 12.6036C15.8571 10.4347 17.8729 10.1521 20.3419 10.2804C21.2848 10.3433 22.2057 10.5818 23.0523 10.9824L25.1763 8.39807C23.661 7.57574 21.978 7.07307 20.2412 6.92406C18.5125 6.75428 16.7659 6.9646 15.136 7.53883C13.506 8.11306 12.0359 9.03591 10.839 10.2364C7.69863 13.5454 6.47472 18.5158 8.85995 22.4633C11.3384 26.5735 14.3026 27.925 18.7751 27.925C23.3462 27.925 27.2513 24.7333 28.9119 21.2123C30.3964 18.0601 30.4168 14.2656 28.6398 11.7006L25.709 13.2887Z" fill="#E02725"/>
<path d="M37.1188 15.1682C36.9114 12.7557 36.1693 10.4126 34.9417 8.2934L28.6412 11.7016C30.4148 14.2665 30.3951 18.0611 28.9133 21.2133C27.252 24.7343 23.3469 27.926 18.7764 27.926C14.3012 27.926 11.3398 26.5745 8.86133 22.4643C6.4761 18.5168 7.70001 13.5464 10.8404 10.2373C12.0373 9.03689 13.5073 8.11405 15.1373 7.53982C16.7673 6.96559 18.5139 6.75526 20.2425 6.92504C21.9794 7.07405 23.6623 7.57672 25.1776 8.39905L29.7828 2.79862C27.4302 1.27816 24.7159 0.342302 21.8869 0.0761859C19.0619 -0.158593 16.2169 0.187006 13.5441 1.08965C10.8713 1.99229 8.43298 3.43095 6.39379 5.30844C-1.00341 12.2895 -2.39945 22.2264 4.4256 29.389C5.73523 30.7638 9.43894 33.5057 11.4377 35.0782C14.8197 37.7397 17.2981 41.9977 17.2981 41.9977C19.436 39.5201 21.7068 37.1493 24.1014 34.8948C26.7832 32.501 29.4311 30.4708 31.9054 28.1821C35.7588 24.6157 37.6031 20.6882 37.1188 15.1682Z" fill="#960E1B"/>
<path d="M79.2869 22.8231H82.5715V34.6851H79.2869V22.8231Z" fill="#080303"/>
<path d="M33.9118 36.5143C34.1077 37.5339 35.7868 37.681 36.4732 37.681C37.1994 37.71 37.9231 37.5816 38.5897 37.3057C39.1176 37.0598 39.5627 36.6781 39.8749 36.2038C40.0926 35.8045 40.049 34.1561 40.049 33.1877C39.5347 33.6818 38.9204 34.0713 38.2434 34.3324C37.5587 34.5754 36.8324 34.6945 36.1018 34.6838C35.279 34.7 34.4615 34.5554 33.6996 34.259C32.9378 33.9626 32.2478 33.5205 31.6722 32.9602C30.4917 31.7458 29.845 30.1464 29.8651 28.4914C29.8852 26.8364 30.5707 25.2517 31.7803 24.0637C32.8936 23.0471 34.3831 22.4903 35.9249 22.5145C36.6507 22.511 37.3707 22.6392 38.0461 22.8924C38.7865 23.1884 39.4651 23.6086 40.0497 24.133V22.823H43.303V34.2015C43.303 36.207 42.8595 37.4185 41.9757 38.3636C40.7879 39.6431 38.9975 40.2827 36.6045 40.2823C35.5132 40.3097 34.4247 40.1625 33.3845 39.8467C32.5596 39.5809 31.8067 39.1441 31.1803 38.5678C30.5753 37.992 30.1213 37.2885 29.855 36.5143H33.9118ZM36.661 25.3043C36.1931 25.29 35.727 25.3655 35.2903 25.5263C34.8537 25.6871 34.4554 25.9299 34.1193 26.2403C33.7905 26.5454 33.5316 26.912 33.3587 27.317C33.1859 27.7221 33.103 28.1568 33.1151 28.5939C33.0994 29.0421 33.1826 29.4883 33.3595 29.9038C33.5363 30.3193 33.8029 30.6948 34.1417 31.0059C34.4842 31.3188 34.8888 31.5635 35.3318 31.7255C35.7748 31.8876 36.2473 31.9638 36.7215 31.9497C37.1814 31.9637 37.6395 31.8897 38.0687 31.7319C38.498 31.5741 38.8896 31.3359 39.2204 31.0312C39.5502 30.7149 39.808 30.3371 39.9777 29.9215C40.1473 29.506 40.2251 29.0615 40.2062 28.616C40.2238 28.1738 40.1447 27.733 39.9738 27.3215C39.8029 26.9101 39.544 26.537 39.2136 26.2261C38.8747 25.9172 38.4741 25.6764 38.0356 25.518C37.5971 25.3597 37.1296 25.287 36.661 25.3043Z" fill="#080303"/>
<path d="M44.9024 22.8231H48.187V28.5389C48.1447 29.3196 48.23 30.1018 48.4401 30.8575C48.5921 31.2687 48.8782 31.6228 49.2565 31.868C49.6689 32.1175 50.1507 32.2427 50.6389 32.2271C51.1312 32.2422 51.6173 32.1194 52.037 31.8738C52.4323 31.6238 52.7316 31.2579 52.8894 30.8315C53.0687 30.1132 53.1374 29.3739 53.0935 28.6367V22.8237H56.3788V27.8511C56.3788 29.9219 56.1974 31.3387 55.8346 32.1014C55.4343 32.9878 54.7564 33.7349 53.8936 34.2404C52.8983 34.7718 51.7681 35.0304 50.628 34.9878C49.4039 35.0424 48.1915 34.7396 47.1529 34.1199C46.2639 33.5305 45.607 32.6749 45.2868 31.6891C44.9654 30.4041 44.836 29.0824 44.9024 27.763V22.8231Z" fill="#080303"/>
<path d="M57.862 22.823H61.1486V24.2024C61.6675 23.6592 62.3022 23.2279 63.0101 22.9372C63.7181 22.6466 64.483 22.5033 65.2537 22.5171C66.0346 22.5021 66.8041 22.6967 67.4745 23.0784C68.1449 23.4602 68.6892 24.0139 69.0452 24.6762C69.5336 23.9972 70.1924 23.4453 70.9617 23.0706C71.7281 22.6976 72.5782 22.5077 73.4387 22.5171C74.2956 22.501 75.1414 22.704 75.8879 23.105C76.5488 23.4542 77.0781 23.9919 77.4016 24.6425C77.7721 25.6309 77.9299 26.6802 77.8656 27.7279V34.6863H74.5837V28.6853C74.5837 27.3457 74.3982 26.4382 74.0272 25.9629C73.8322 25.723 73.5782 25.5324 73.2877 25.4081C72.9971 25.2837 72.6789 25.2294 72.3611 25.2499C71.8199 25.2432 71.29 25.397 70.8446 25.69C70.3906 25.9817 70.0425 26.4002 69.848 26.8879C69.5854 27.6837 69.4748 28.518 69.5214 29.351V34.6889H66.2395V28.9615C66.2745 28.1872 66.1871 27.4124 65.9803 26.663C65.8458 26.2405 65.574 25.8697 65.2041 25.6038C64.8379 25.3634 64.4008 25.2403 63.9563 25.2525C63.4257 25.2498 62.9073 25.4041 62.4725 25.6939C62.0191 26.0008 61.672 26.4296 61.4759 26.9255C61.2151 27.734 61.1039 28.5795 61.1473 29.4243V34.687H57.8606L57.862 22.823Z" fill="#080303"/>
<path d="M80.9285 17.6491C80.4463 17.5871 79.9559 17.6668 79.5225 17.8773C79.0891 18.0879 78.7335 18.4195 78.5031 18.8277C78.2727 19.236 78.1785 19.7014 78.2331 20.162C78.2877 20.6226 78.4885 21.0563 78.8086 21.4053C79.1287 21.7544 79.553 22.002 80.0247 22.1152C80.4965 22.2284 80.9933 22.2018 81.4487 22.039C81.9042 21.8761 82.2966 21.5847 82.5737 21.2037C82.8508 20.8228 82.9993 20.3703 82.9994 19.9068C83.036 19.3464 82.8391 18.7949 82.4513 18.3722C82.0635 17.9494 81.5162 17.6895 80.9285 17.6491ZM80.7863 21.34V18.4743C80.9898 18.4651 81.1931 18.4953 81.384 18.5631C81.5749 18.631 81.7493 18.735 81.8968 18.869C82.0442 19.003 82.1616 19.164 82.2418 19.3425C82.322 19.5209 82.3634 19.713 82.3634 19.9071C82.3634 20.1012 82.322 20.2933 82.2418 20.4718C82.1616 20.6502 82.0442 20.8113 81.8968 20.9453C81.7493 21.0792 81.5749 21.1833 81.384 21.2511C81.1931 21.319 80.9898 21.3492 80.7863 21.34Z" fill="#960E1B"/>
<path d="M61.0832 36.1468H62.1404L60.477 40.5837H59.5143L57.8618 36.1468H58.9503L60.0076 39.5174L61.0832 36.1468Z" fill="#070303"/>
<path d="M63.3711 36.9116H62.4146V36.1189H63.3711V36.9116ZM62.4146 37.3006H63.3711V40.5824H62.4146V37.3006Z" fill="#070303"/>
<path d="M66.4992 37.3686C66.7503 37.4722 66.966 37.6403 67.1224 37.8541C67.2737 38.0562 67.3723 38.2897 67.4102 38.5354C67.4381 38.7503 67.4486 38.967 67.4415 39.1835H64.8141C64.8075 39.3202 64.8389 39.4561 64.9051 39.5776C64.9712 39.699 65.0699 39.8017 65.191 39.8752C65.3484 39.962 65.5283 40.0049 65.7101 39.999C65.8983 40.0082 66.0841 39.9551 66.236 39.8486C66.316 39.7869 66.3824 39.7107 66.4312 39.6243H67.3918C67.3465 39.8531 67.2243 40.0615 67.0435 40.2181C66.8637 40.383 66.6499 40.5106 66.4157 40.5928C66.1815 40.675 65.932 40.7101 65.6828 40.6958C65.2242 40.7022 64.7769 40.5595 64.4147 40.2913C64.22 40.13 64.0684 39.9267 63.9725 39.6985C63.8766 39.4702 63.839 39.2235 63.863 38.9787C63.8464 38.7399 63.8818 38.5004 63.9669 38.2752C64.052 38.05 64.185 37.844 64.3576 37.67C64.5309 37.5168 64.7344 37.3979 64.9563 37.32C65.1781 37.2421 65.414 37.2069 65.6502 37.2163C65.9411 37.2123 66.2298 37.2641 66.4992 37.3686ZM65.0882 38.1101C64.9498 38.2497 64.8619 38.4278 64.8372 38.6183H66.4618C66.4603 38.52 66.4372 38.423 66.394 38.3337C66.3507 38.2444 66.2883 38.1647 66.2108 38.0998C66.0521 37.9793 65.8537 37.9164 65.6509 37.9222C65.5487 37.9161 65.4463 37.9296 65.3497 37.9618C65.2531 37.9939 65.1642 38.0442 65.0882 38.1095V38.1101Z" fill="#070303"/>
<path d="M67.687 37.9442V37.3342H68.1877V36.4171H69.1225V37.3342H69.7062V37.9442H69.1225V39.6794C69.1111 39.766 69.1295 39.8538 69.1749 39.9296C69.2837 39.9751 69.4032 39.9923 69.5212 39.9796C69.5504 39.9796 69.5797 39.9796 69.613 39.9796C69.6464 39.9796 69.681 39.9795 69.7069 39.975V40.6161L69.2593 40.631C68.9385 40.6785 68.6111 40.6032 68.3483 40.4216C68.2908 40.3603 68.247 40.2884 68.2196 40.2104C68.1922 40.1324 68.1819 40.0499 68.1891 39.9679V37.9468L67.687 37.9442Z" fill="#070303"/>
<path d="M72.9514 37.4924C73.078 37.6035 73.1757 37.7411 73.237 37.8943C73.2983 38.0475 73.3214 38.2121 73.3045 38.3753V40.5837H72.3371V38.5885C72.3449 38.4516 72.3191 38.3149 72.2616 38.1892C72.2089 38.103 72.131 38.0332 72.0373 37.9886C71.9437 37.9439 71.8384 37.9262 71.7343 37.9377C71.5986 37.9275 71.4628 37.9576 71.3457 38.0237C71.2285 38.0899 71.1357 38.1889 71.0798 38.3072C71.0157 38.4675 70.9852 38.6381 70.99 38.8096V40.583H70.0471V37.3064H70.9601V37.7867C71.0525 37.6478 71.1686 37.5247 71.3037 37.4224C71.5196 37.2833 71.7766 37.2137 72.0371 37.2241C72.3653 37.21 72.6884 37.3049 72.9514 37.4924Z" fill="#070303"/>
<path d="M75.3414 38.5885C75.4695 38.5795 75.5957 38.5547 75.717 38.5146C75.7744 38.5005 75.8253 38.469 75.8622 38.4247C75.899 38.3805 75.9197 38.326 75.9211 38.2696C75.9259 38.2136 75.9136 38.1574 75.8857 38.1079C75.8578 38.0583 75.8156 38.0175 75.7639 37.9902C75.6191 37.9337 75.4631 37.908 75.3068 37.915C75.2196 37.9068 75.1316 37.916 75.0483 37.9419C74.9651 37.9678 74.8884 38.0098 74.823 38.0654C74.7511 38.153 74.7042 38.2569 74.687 38.3668H73.7774C73.7862 38.1103 73.8795 37.8629 74.0441 37.6597C74.2117 37.4998 74.4149 37.3778 74.6386 37.3027C74.8623 37.2275 75.1009 37.2011 75.3367 37.2254C75.7021 37.2188 76.0643 37.2922 76.3953 37.4399C76.5488 37.5139 76.6752 37.6305 76.7577 37.7743C76.8402 37.9182 76.8749 38.0826 76.8572 38.2456V39.7488C76.8572 39.8538 76.8572 39.9815 76.8606 40.1286C76.8587 40.2079 76.8788 40.2862 76.9191 40.3555C76.9552 40.4007 77.0037 40.4355 77.0593 40.456V40.5817H76.0313C76.0064 40.5218 75.9868 40.46 75.9728 40.397C75.9612 40.3374 75.9551 40.2725 75.9456 40.1974C75.8127 40.3269 75.6608 40.4374 75.4945 40.5253C75.2809 40.6338 75.042 40.6891 74.7999 40.6861C74.5037 40.6976 74.2132 40.6054 73.9835 40.4268C73.8756 40.3382 73.7906 40.2271 73.7351 40.1021C73.6796 39.977 73.6552 39.8415 73.6638 39.706C73.6521 39.5283 73.6946 39.3512 73.7863 39.1961C73.8779 39.0409 74.0147 38.9143 74.1801 38.8316C74.4422 38.7141 74.7247 38.6431 75.0135 38.6222L75.3414 38.5885ZM75.915 38.9904C75.8571 39.0238 75.7958 39.0513 75.732 39.0727C75.6503 39.0992 75.5663 39.1185 75.4809 39.1304L75.2639 39.1674C75.1133 39.1834 74.9666 39.2233 74.8298 39.2853C74.76 39.3191 74.7019 39.3712 74.6623 39.4356C74.6227 39.5 74.6035 39.5738 74.6067 39.6483C74.6011 39.7076 74.6105 39.7673 74.6342 39.8223C74.6579 39.8774 74.6951 39.9262 74.7428 39.9646C74.8375 40.0327 74.9542 40.067 75.0727 40.0619C75.2753 40.0634 75.4738 40.0074 75.6428 39.9011C75.7373 39.8326 75.8119 39.7422 75.8596 39.6385C75.9072 39.5349 75.9262 39.4213 75.915 39.3087V38.9904Z" fill="#070303"/>
<path d="M81.9107 37.3155C82.0763 37.3767 82.2219 37.4787 82.3325 37.6111C82.4376 37.7329 82.5079 37.8784 82.5366 38.0337C82.5615 38.1929 82.5727 38.3538 82.57 38.5147L82.5625 40.5837H81.593V38.4952C81.5969 38.3895 81.5735 38.2844 81.525 38.1893C81.4812 38.1119 81.4142 38.0486 81.3325 38.0077C81.2508 37.9667 81.1582 37.9498 81.0664 37.9592C80.9558 37.9498 80.8448 37.9729 80.7484 38.0254C80.652 38.0779 80.5747 38.1572 80.5269 38.2528C80.4717 38.3716 80.4458 38.5009 80.4514 38.6307V40.5831H79.499V38.6307C79.5072 38.4864 79.484 38.3421 79.4309 38.2068C79.3883 38.1264 79.3209 38.0604 79.2377 38.0176C79.1545 37.9748 79.0595 37.9574 78.9656 37.9676C78.8605 37.9551 78.7538 37.9709 78.6576 38.0131C78.5614 38.0554 78.4796 38.1225 78.4213 38.2068C78.3641 38.3338 78.3392 38.472 78.3485 38.6099V40.5831H77.3906V37.3064H78.3036V37.7867C78.3925 37.6483 78.5052 37.5252 78.637 37.4224C78.8437 37.3017 79.0804 37.2354 79.3228 37.2304C79.5652 37.2254 79.8047 37.2818 80.0167 37.3939C80.1545 37.4986 80.2621 37.6349 80.3296 37.79C80.4393 37.6119 80.5981 37.4659 80.7889 37.368C80.9912 37.2732 81.2145 37.2261 81.4399 37.2306C81.601 37.231 81.7606 37.2598 81.9107 37.3155Z" fill="#070303"/>
</g>
<defs>
<clipPath id="clip0_437_41564">
<rect width="83" height="42" fill="white"/>
</clipPath>
</defs>
</svg>
